# xmcd CD database file
#
# Track frame offsets:
#	150
#	24770
#	53068
#	75158
#	104235
#	122410
#	147355
#	176020
#	190800
#	215301
#
# Disc length: 3135 seconds
#
# Revision: 0
# Processed by: cddbd v1.5.2PL0 Copyright (c) Steve Scherf et al.
# Submitted via: CDex 1.70beta2
#
DISCID=7d0c3d0a
DTITLE=Guillermo Klein - Los Guachos
DYEAR=2012
DGENRE=Jazz
TTITLE0=Burrito Hill
TTITLE1=Globo
TTITLE2=Niños
TTITLE3=Mariana
TTITLE4=Mareados
TTITLE5=ArteSano
TTITLE6=Moreira
TTITLE7=The Habit of Memory
TTITLE8=Alberto Ginastera - Piano sonata op.22 (first mov.)
TTITLE9=Carrera
EXTD=YEAR: 2012
EXTT0=
EXTT1=
EXTT2=
EXTT3=
EXTT4=
EXTT5=
EXTT6=
EXTT7=
EXTT8=
EXTT9=
PLAYORDER=
